# xmcd
# Copyright (C) 1995-1998 Ti Kan
#
# Track frame offsets:
#       150
#       16963
#       32144
#       45542
#       59963
#       76705
#       91364
#       108935
#       126447
#
# Disc length: 1982 seconds
#
# Revision: 0
# Processed by: cddbd v1.5.2PL0 Copyright (c) Steve Scherf et al.
# Submitted via: CD-Import v1.0
#
DISCID=7107bc09
DTITLE=Dojo Cuts - Dojo Cuts Featuring Roxie Ray
DYEAR=2009
DGENRE=
TTITLE0=You Make Lovin' Real Easy
TTITLE1=Uptight
TTITLE2=Mama Told Me
TTITLE3=Say What You Mean
TTITLE4=The 1,2,3s
TTITLE5=I Know You Didn't Mean It
TTITLE6=The Bing
TTITLE7=Love Me Right (Lola's Lament)
TTITLE8=Something Going On
EXTD=
EXTT0=
EXTT1=
EXTT2=
EXTT3=
EXTT4=
EXTT5=
EXTT6=
EXTT7=
EXTT8=
PLAYORDER=
